<svg width="79" height="97" viewBox="0 0 79 97" fill="none" xmlns="http://www.w3.org/2000/svg">
<path d="M35.5 1.3094C37.9752 -0.119662 41.0248 -0.119661 43.5 1.3094L74.0381 18.9406C76.5133 20.3697 78.0381 23.0107 78.0381 25.8688V61.1312C78.0381 63.9893 76.5133 66.6303 74.0381 68.0594L43.5 85.6906C41.0248 87.1197 37.9752 87.1197 35.5 85.6906L4.96187 68.0594C2.48666 66.6303 0.961868 63.9893 0.961868 61.1312V25.8688C0.961868 23.0107 2.48666 20.3697 4.96187 18.9406L35.5 1.3094Z" fill="url(#paint0_linear_0_1)"/>
<path d="M25.0921 96.2904C23.5648 97.1748 21.7241 95.7915 22.1487 94.0785L29.6344 63.8739C29.9791 62.4831 31.6316 61.8953 32.7771 62.7561L52.221 77.3674C53.3665 78.2283 53.2617 79.9791 52.0217 80.6971L25.0921 96.2904Z" fill="#0369A1"/>
<circle cx="22.5" cy="43.5" r="6.5" fill="#F5F5F5"/>
<circle cx="39.5" cy="43.5" r="6.5" fill="#F5F5F5"/>
<circle cx="56.5" cy="43.5" r="6.5" fill="#F5F5F5"/>
<defs>
<linearGradient id="paint0_linear_0_1" x1="76.5" y1="64.5" x2="24.5" y2="65.5" gradientUnits="userSpaceOnUse">
<stop stop-color="#0E7490"/>
<stop offset="1" stop-color="#0369A1"/>
</linearGradient>
</defs>
</svg>
